<mxfile host="app.diagrams.net" modified="2020-03-26T08:03:15.735Z" agent="Mozilla/5.0 (Windows NT 10.0; Win64; x64) AppleWebKit/537.36 (KHTML, like Gecko) Chrome/80.0.3987.149 Safari/537.36" etag="dzFEvjiBnwMgTUBXFty4" version="12.9.0" type="github">
  <diagram id="F6M2CM-lMw-aMxxeD0DP" name="Page-1">
    <mxGraphModel dx="1422" dy="762" grid="1" gridSize="10" guides="1" tooltips="1" connect="1" arrows="1" fold="1" page="1" pageScale="1" pageWidth="827" pageHeight="1169" math="0" shadow="0">
      <root>
        <mxCell id="0" />
        <mxCell id="1" parent="0" />
        <mxCell id="J83_Mju_08RlY5ZrgqLB-3" value="" style="rounded=0;whiteSpace=wrap;html=1;" parent="1" vertex="1">
          <mxGeometry x="150" y="150" width="730" height="150" as="geometry" />
        </mxCell>
        <mxCell id="J83_Mju_08RlY5ZrgqLB-5" value="" style="rounded=0;whiteSpace=wrap;html=1;" parent="1" vertex="1">
          <mxGeometry x="350" y="190" width="120" height="60" as="geometry" />
        </mxCell>
        <mxCell id="J83_Mju_08RlY5ZrgqLB-6" value="" style="rounded=0;whiteSpace=wrap;html=1;" parent="1" vertex="1">
          <mxGeometry x="530" y="190" width="120" height="60" as="geometry" />
        </mxCell>
        <mxCell id="J83_Mju_08RlY5ZrgqLB-7" value="" style="rounded=0;whiteSpace=wrap;html=1;" parent="1" vertex="1">
          <mxGeometry x="720" y="190" width="120" height="60" as="geometry" />
        </mxCell>
        <mxCell id="J83_Mju_08RlY5ZrgqLB-8" value="" style="rounded=0;whiteSpace=wrap;html=1;" parent="1" vertex="1">
          <mxGeometry x="150" y="350" width="730" height="280" as="geometry" />
        </mxCell>
        <mxCell id="J83_Mju_08RlY5ZrgqLB-9" value="" style="rounded=0;whiteSpace=wrap;html=1;" parent="1" vertex="1">
          <mxGeometry x="170" y="390" width="120" height="60" as="geometry" />
        </mxCell>
        <mxCell id="J83_Mju_08RlY5ZrgqLB-10" value="" style="rounded=0;whiteSpace=wrap;html=1;" parent="1" vertex="1">
          <mxGeometry x="350" y="390" width="120" height="60" as="geometry" />
        </mxCell>
        <mxCell id="J83_Mju_08RlY5ZrgqLB-11" value="" style="rounded=0;whiteSpace=wrap;html=1;" parent="1" vertex="1">
          <mxGeometry x="530" y="390" width="120" height="60" as="geometry" />
        </mxCell>
        <mxCell id="J83_Mju_08RlY5ZrgqLB-12" value="" style="rounded=0;whiteSpace=wrap;html=1;" parent="1" vertex="1">
          <mxGeometry x="720" y="390" width="120" height="60" as="geometry" />
        </mxCell>
        <mxCell id="J83_Mju_08RlY5ZrgqLB-13" value="" style="endArrow=classic;html=1;entryX=0.5;entryY=0;entryDx=0;entryDy=0;exitX=0.5;exitY=1;exitDx=0;exitDy=0;" parent="1" source="J83_Mju_08RlY5ZrgqLB-60" target="J83_Mju_08RlY5ZrgqLB-9" edge="1">
          <mxGeometry width="50" height="50" relative="1" as="geometry">
            <mxPoint x="220" y="400" as="sourcePoint" />
            <mxPoint x="230" y="250" as="targetPoint" />
          </mxGeometry>
        </mxCell>
        <mxCell id="J83_Mju_08RlY5ZrgqLB-19" value="" style="rounded=0;whiteSpace=wrap;html=1;" parent="1" vertex="1">
          <mxGeometry x="350" y="525" width="120" height="60" as="geometry" />
        </mxCell>
        <mxCell id="J83_Mju_08RlY5ZrgqLB-23" value="" style="rounded=0;whiteSpace=wrap;html=1;" parent="1" vertex="1">
          <mxGeometry x="150" y="670" width="730" height="150" as="geometry" />
        </mxCell>
        <mxCell id="J83_Mju_08RlY5ZrgqLB-24" value="" style="rounded=0;whiteSpace=wrap;html=1;" parent="1" vertex="1">
          <mxGeometry x="350" y="715" width="120" height="60" as="geometry" />
        </mxCell>
        <mxCell id="J83_Mju_08RlY5ZrgqLB-33" value="" style="shape=actor;whiteSpace=wrap;html=1;" parent="1" vertex="1">
          <mxGeometry x="232.71" y="420" width="22" height="27.78" as="geometry" />
        </mxCell>
        <mxCell id="J83_Mju_08RlY5ZrgqLB-35" value="" style="verticalLabelPosition=bottom;verticalAlign=top;html=1;shape=mxgraph.basic.smiley" parent="1" vertex="1">
          <mxGeometry x="201.79" y="418.89" width="26.64" height="30" as="geometry" />
        </mxCell>
        <mxCell id="J83_Mju_08RlY5ZrgqLB-39" value="" style="verticalLabelPosition=bottom;verticalAlign=top;html=1;shape=mxgraph.basic.4_point_star_2;dx=0.8;" parent="1" vertex="1">
          <mxGeometry x="224.70999999999998" y="390" width="32" height="30" as="geometry" />
        </mxCell>
        <mxCell id="J83_Mju_08RlY5ZrgqLB-42" value="" style="verticalLabelPosition=bottom;verticalAlign=top;html=1;shape=mxgraph.basic.sun" parent="1" vertex="1">
          <mxGeometry x="256.71000000000004" y="389" width="33.29" height="29" as="geometry" />
        </mxCell>
        <mxCell id="J83_Mju_08RlY5ZrgqLB-43" value="" style="verticalLabelPosition=bottom;verticalAlign=top;html=1;shape=mxgraph.basic.polygon;polyCoords=[[0.25,0],[0.75,0],[1,0.25],[1,0.75],[0.75,1],[0.25,1],[0,0.75],[0,0.25]];polyline=0;" parent="1" vertex="1">
          <mxGeometry x="170" y="422.78" width="29" height="25" as="geometry" />
        </mxCell>
        <mxCell id="J83_Mju_08RlY5ZrgqLB-46" value="" style="verticalLabelPosition=bottom;verticalAlign=top;html=1;shape=mxgraph.basic.heart" parent="1" vertex="1">
          <mxGeometry x="196.43" y="391" width="32" height="25" as="geometry" />
        </mxCell>
        <mxCell id="J83_Mju_08RlY5ZrgqLB-60" value="" style="rounded=0;whiteSpace=wrap;html=1;" parent="1" vertex="1">
          <mxGeometry x="170" y="190" width="120" height="60" as="geometry" />
        </mxCell>
        <mxCell id="J83_Mju_08RlY5ZrgqLB-62" value="" style="endArrow=classic;html=1;entryX=0.5;entryY=0;entryDx=0;entryDy=0;exitX=0.5;exitY=1;exitDx=0;exitDy=0;" parent="1" target="J83_Mju_08RlY5ZrgqLB-19" edge="1">
          <mxGeometry width="50" height="50" relative="1" as="geometry">
            <mxPoint x="224.71" y="450" as="sourcePoint" />
            <mxPoint x="224.71" y="590" as="targetPoint" />
          </mxGeometry>
        </mxCell>
        <mxCell id="J83_Mju_08RlY5ZrgqLB-63" value="" style="endArrow=classic;html=1;entryX=0.5;entryY=0;entryDx=0;entryDy=0;exitX=0.5;exitY=1;exitDx=0;exitDy=0;" parent="1" edge="1">
          <mxGeometry width="50" height="50" relative="1" as="geometry">
            <mxPoint x="590" y="250" as="sourcePoint" />
            <mxPoint x="590" y="390" as="targetPoint" />
          </mxGeometry>
        </mxCell>
        <mxCell id="J83_Mju_08RlY5ZrgqLB-64" value="" style="endArrow=classic;html=1;entryX=0.5;entryY=0;entryDx=0;entryDy=0;exitX=0.5;exitY=1;exitDx=0;exitDy=0;" parent="1" edge="1">
          <mxGeometry width="50" height="50" relative="1" as="geometry">
            <mxPoint x="779.5" y="249" as="sourcePoint" />
            <mxPoint x="779.5" y="389" as="targetPoint" />
          </mxGeometry>
        </mxCell>
        <mxCell id="J83_Mju_08RlY5ZrgqLB-65" value="" style="endArrow=classic;html=1;exitX=0.5;exitY=1;exitDx=0;exitDy=0;" parent="1" source="J83_Mju_08RlY5ZrgqLB-10" target="J83_Mju_08RlY5ZrgqLB-19" edge="1">
          <mxGeometry width="50" height="50" relative="1" as="geometry">
            <mxPoint x="400" y="448.89" as="sourcePoint" />
            <mxPoint x="585.29" y="523.89" as="targetPoint" />
          </mxGeometry>
        </mxCell>
        <mxCell id="J83_Mju_08RlY5ZrgqLB-66" value="" style="endArrow=classic;html=1;entryX=0.5;entryY=0;entryDx=0;entryDy=0;exitX=0.5;exitY=1;exitDx=0;exitDy=0;" parent="1" edge="1" source="J83_Mju_08RlY5ZrgqLB-60">
          <mxGeometry width="50" height="50" relative="1" as="geometry">
            <mxPoint x="409.5" y="251" as="sourcePoint" />
            <mxPoint x="409.5" y="391" as="targetPoint" />
          </mxGeometry>
        </mxCell>
        <mxCell id="J83_Mju_08RlY5ZrgqLB-67" value="" style="endArrow=classic;html=1;entryX=0.45;entryY=-0.017;entryDx=0;entryDy=0;entryPerimeter=0;" parent="1" target="J83_Mju_08RlY5ZrgqLB-19" edge="1">
          <mxGeometry width="50" height="50" relative="1" as="geometry">
            <mxPoint x="590" y="450" as="sourcePoint" />
            <mxPoint x="597.1727452643484" y="523.89" as="targetPoint" />
          </mxGeometry>
        </mxCell>
        <mxCell id="J83_Mju_08RlY5ZrgqLB-68" value="" style="endArrow=classic;html=1;entryX=0.45;entryY=-0.017;entryDx=0;entryDy=0;entryPerimeter=0;" parent="1" target="J83_Mju_08RlY5ZrgqLB-19" edge="1">
          <mxGeometry width="50" height="50" relative="1" as="geometry">
            <mxPoint x="780" y="452" as="sourcePoint" />
            <mxPoint x="787.1727452643484" y="528.0599999999998" as="targetPoint" />
          </mxGeometry>
        </mxCell>
        <mxCell id="J83_Mju_08RlY5ZrgqLB-69" value="" style="endArrow=classic;html=1;entryX=0.5;entryY=0;entryDx=0;entryDy=0;" parent="1" target="J83_Mju_08RlY5ZrgqLB-24" edge="1">
          <mxGeometry width="50" height="50" relative="1" as="geometry">
            <mxPoint x="410" y="585" as="sourcePoint" />
            <mxPoint x="599.29" y="660" as="targetPoint" />
          </mxGeometry>
        </mxCell>
        <mxCell id="J83_Mju_08RlY5ZrgqLB-70" value="步骤1" style="text;html=1;strokeColor=none;fillColor=none;align=center;verticalAlign=middle;whiteSpace=wrap;rounded=0;" parent="1" vertex="1">
          <mxGeometry x="170" y="450" width="40" height="20" as="geometry" />
        </mxCell>
        <mxCell id="J83_Mju_08RlY5ZrgqLB-71" value="单元1" style="text;html=1;strokeColor=none;fillColor=none;align=center;verticalAlign=middle;whiteSpace=wrap;rounded=0;" parent="1" vertex="1">
          <mxGeometry x="150" y="150" width="40" height="20" as="geometry" />
        </mxCell>
        <mxCell id="J83_Mju_08RlY5ZrgqLB-72" value="单元2" style="text;html=1;strokeColor=none;fillColor=none;align=center;verticalAlign=middle;whiteSpace=wrap;rounded=0;" parent="1" vertex="1">
          <mxGeometry x="150" y="350" width="40" height="20" as="geometry" />
        </mxCell>
        <mxCell id="J83_Mju_08RlY5ZrgqLB-73" value="步骤1" style="text;html=1;strokeColor=none;fillColor=none;align=center;verticalAlign=middle;whiteSpace=wrap;rounded=0;" parent="1" vertex="1">
          <mxGeometry x="170" y="250" width="40" height="20" as="geometry" />
        </mxCell>
        <mxCell id="J83_Mju_08RlY5ZrgqLB-74" value="步骤2" style="text;html=1;strokeColor=none;fillColor=none;align=center;verticalAlign=middle;whiteSpace=wrap;rounded=0;" parent="1" vertex="1">
          <mxGeometry x="350" y="250" width="40" height="20" as="geometry" />
        </mxCell>
        <mxCell id="J83_Mju_08RlY5ZrgqLB-75" value="步骤3" style="text;html=1;strokeColor=none;fillColor=none;align=center;verticalAlign=middle;whiteSpace=wrap;rounded=0;" parent="1" vertex="1">
          <mxGeometry x="530" y="250" width="40" height="20" as="geometry" />
        </mxCell>
        <mxCell id="J83_Mju_08RlY5ZrgqLB-76" value="步骤4" style="text;html=1;strokeColor=none;fillColor=none;align=center;verticalAlign=middle;whiteSpace=wrap;rounded=0;" parent="1" vertex="1">
          <mxGeometry x="720" y="250" width="40" height="20" as="geometry" />
        </mxCell>
        <mxCell id="J83_Mju_08RlY5ZrgqLB-77" value="步骤2" style="text;html=1;strokeColor=none;fillColor=none;align=center;verticalAlign=middle;whiteSpace=wrap;rounded=0;" parent="1" vertex="1">
          <mxGeometry x="350" y="448.89" width="40" height="20" as="geometry" />
        </mxCell>
        <mxCell id="J83_Mju_08RlY5ZrgqLB-80" value="步骤3" style="text;html=1;strokeColor=none;fillColor=none;align=center;verticalAlign=middle;whiteSpace=wrap;rounded=0;" parent="1" vertex="1">
          <mxGeometry x="530" y="449.78" width="40" height="20" as="geometry" />
        </mxCell>
        <mxCell id="J83_Mju_08RlY5ZrgqLB-82" value="步骤4" style="text;html=1;strokeColor=none;fillColor=none;align=center;verticalAlign=middle;whiteSpace=wrap;rounded=0;" parent="1" vertex="1">
          <mxGeometry x="720" y="449.78" width="40" height="20" as="geometry" />
        </mxCell>
        <mxCell id="J83_Mju_08RlY5ZrgqLB-83" value="步骤5" style="text;html=1;strokeColor=none;fillColor=none;align=center;verticalAlign=middle;whiteSpace=wrap;rounded=0;" parent="1" vertex="1">
          <mxGeometry x="350" y="585" width="40" height="20" as="geometry" />
        </mxCell>
        <mxCell id="J83_Mju_08RlY5ZrgqLB-84" value="单元3" style="text;html=1;strokeColor=none;fillColor=none;align=center;verticalAlign=middle;whiteSpace=wrap;rounded=0;" parent="1" vertex="1">
          <mxGeometry x="150" y="670" width="40" height="20" as="geometry" />
        </mxCell>
        <mxCell id="J83_Mju_08RlY5ZrgqLB-85" value="步骤1" style="text;html=1;strokeColor=none;fillColor=none;align=center;verticalAlign=middle;whiteSpace=wrap;rounded=0;" parent="1" vertex="1">
          <mxGeometry x="350" y="775" width="40" height="20" as="geometry" />
        </mxCell>
        <mxCell id="J83_Mju_08RlY5ZrgqLB-86" value="&lt;font color=&quot;#ff3333&quot;&gt;3&lt;/font&gt;" style="text;html=1;strokeColor=none;fillColor=none;align=center;verticalAlign=middle;whiteSpace=wrap;rounded=0;" parent="1" vertex="1">
          <mxGeometry x="204.71" y="396" width="20" height="15" as="geometry" />
        </mxCell>
        <mxCell id="J83_Mju_08RlY5ZrgqLB-90" value="&lt;font color=&quot;#ff3333&quot;&gt;0&lt;/font&gt;" style="text;html=1;strokeColor=none;fillColor=none;align=center;verticalAlign=middle;whiteSpace=wrap;rounded=0;" parent="1" vertex="1">
          <mxGeometry x="174.5" y="432.78" width="20" height="15" as="geometry" />
        </mxCell>
        <mxCell id="J83_Mju_08RlY5ZrgqLB-91" value="&lt;font color=&quot;#ff3333&quot;&gt;0&lt;/font&gt;" style="text;html=1;strokeColor=none;fillColor=none;align=center;verticalAlign=middle;whiteSpace=wrap;rounded=0;" parent="1" vertex="1">
          <mxGeometry x="204.71" y="432.78" width="20" height="15" as="geometry" />
        </mxCell>
        <mxCell id="J83_Mju_08RlY5ZrgqLB-92" value="&lt;font color=&quot;#ff3333&quot;&gt;0&lt;/font&gt;" style="text;html=1;strokeColor=none;fillColor=none;align=center;verticalAlign=middle;whiteSpace=wrap;rounded=0;" parent="1" vertex="1">
          <mxGeometry x="232.71" y="432.78" width="20" height="15" as="geometry" />
        </mxCell>
        <mxCell id="J83_Mju_08RlY5ZrgqLB-93" value="&lt;font color=&quot;#ff3333&quot;&gt;0&lt;/font&gt;" style="text;html=1;strokeColor=none;fillColor=none;align=center;verticalAlign=middle;whiteSpace=wrap;rounded=0;" parent="1" vertex="1">
          <mxGeometry x="231.43" y="397.5" width="20" height="15" as="geometry" />
        </mxCell>
        <mxCell id="J83_Mju_08RlY5ZrgqLB-94" value="&lt;font color=&quot;#ff3333&quot;&gt;0&lt;/font&gt;" style="text;html=1;strokeColor=none;fillColor=none;align=center;verticalAlign=middle;whiteSpace=wrap;rounded=0;" parent="1" vertex="1">
          <mxGeometry x="263.35" y="396" width="20" height="15" as="geometry" />
        </mxCell>
        <mxCell id="J83_Mju_08RlY5ZrgqLB-97" value="" style="ellipse;whiteSpace=wrap;html=1;" parent="1" vertex="1">
          <mxGeometry x="169" y="391" width="30" height="25" as="geometry" />
        </mxCell>
        <mxCell id="J83_Mju_08RlY5ZrgqLB-98" value="&lt;font color=&quot;#ff3333&quot;&gt;0&lt;/font&gt;" style="text;html=1;strokeColor=none;fillColor=none;align=center;verticalAlign=middle;whiteSpace=wrap;rounded=0;" parent="1" vertex="1">
          <mxGeometry x="174" y="396" width="20" height="15" as="geometry" />
        </mxCell>
        <mxCell id="MdM7hJQWONPKvJ7sGF85-2" value="" style="shape=image;html=1;verticalLabelPosition=bottom;labelBackgroundColor=#ffffff;verticalAlign=top;imageAspect=0;image=img/clipart/Gear_128x128.png" vertex="1" parent="1">
          <mxGeometry x="850" y="150" width="30" height="30" as="geometry" />
        </mxCell>
        <mxCell id="MdM7hJQWONPKvJ7sGF85-4" value="" style="shape=image;html=1;verticalLabelPosition=bottom;labelBackgroundColor=#ffffff;verticalAlign=top;imageAspect=0;image=img/clipart/Gear_128x128.png" vertex="1" parent="1">
          <mxGeometry x="850" y="350" width="30" height="30" as="geometry" />
        </mxCell>
        <mxCell id="MdM7hJQWONPKvJ7sGF85-5" value="" style="shape=image;html=1;verticalLabelPosition=bottom;labelBackgroundColor=#ffffff;verticalAlign=top;imageAspect=0;image=img/clipart/Gear_128x128.png" vertex="1" parent="1">
          <mxGeometry x="850" y="670" width="30" height="30" as="geometry" />
        </mxCell>
        <mxCell id="MdM7hJQWONPKvJ7sGF85-7" value="" style="shape=image;html=1;verticalLabelPosition=bottom;labelBackgroundColor=#ffffff;verticalAlign=top;imageAspect=0;image=img/clipart/Gear_128x128.png" vertex="1" parent="1">
          <mxGeometry x="263.35" y="222.99999999999997" width="30" height="27" as="geometry" />
        </mxCell>
        <mxCell id="MdM7hJQWONPKvJ7sGF85-8" value="" style="shape=image;html=1;verticalLabelPosition=bottom;labelBackgroundColor=#ffffff;verticalAlign=top;imageAspect=0;image=img/clipart/Gear_128x128.png" vertex="1" parent="1">
          <mxGeometry x="440" y="222.99999999999997" width="30" height="27" as="geometry" />
        </mxCell>
        <mxCell id="MdM7hJQWONPKvJ7sGF85-9" value="" style="shape=image;html=1;verticalLabelPosition=bottom;labelBackgroundColor=#ffffff;verticalAlign=top;imageAspect=0;image=img/clipart/Gear_128x128.png" vertex="1" parent="1">
          <mxGeometry x="620" y="222.99999999999997" width="30" height="27" as="geometry" />
        </mxCell>
        <mxCell id="MdM7hJQWONPKvJ7sGF85-10" value="" style="shape=image;html=1;verticalLabelPosition=bottom;labelBackgroundColor=#ffffff;verticalAlign=top;imageAspect=0;image=img/clipart/Gear_128x128.png" vertex="1" parent="1">
          <mxGeometry x="810" y="222.99999999999997" width="30" height="27" as="geometry" />
        </mxCell>
        <mxCell id="MdM7hJQWONPKvJ7sGF85-11" value="" style="shape=image;html=1;verticalLabelPosition=bottom;labelBackgroundColor=#ffffff;verticalAlign=top;imageAspect=0;image=img/clipart/Gear_128x128.png" vertex="1" parent="1">
          <mxGeometry x="810" y="423" width="30" height="27" as="geometry" />
        </mxCell>
        <mxCell id="MdM7hJQWONPKvJ7sGF85-12" value="" style="shape=image;html=1;verticalLabelPosition=bottom;labelBackgroundColor=#ffffff;verticalAlign=top;imageAspect=0;image=img/clipart/Gear_128x128.png" vertex="1" parent="1">
          <mxGeometry x="620" y="426.78" width="30" height="27" as="geometry" />
        </mxCell>
        <mxCell id="MdM7hJQWONPKvJ7sGF85-13" value="" style="shape=image;html=1;verticalLabelPosition=bottom;labelBackgroundColor=#ffffff;verticalAlign=top;imageAspect=0;image=img/clipart/Gear_128x128.png" vertex="1" parent="1">
          <mxGeometry x="440" y="426.78" width="30" height="27" as="geometry" />
        </mxCell>
        <mxCell id="MdM7hJQWONPKvJ7sGF85-14" value="" style="shape=image;html=1;verticalLabelPosition=bottom;labelBackgroundColor=#ffffff;verticalAlign=top;imageAspect=0;image=img/clipart/Gear_128x128.png" vertex="1" parent="1">
          <mxGeometry x="440" y="558" width="30" height="27" as="geometry" />
        </mxCell>
        <mxCell id="MdM7hJQWONPKvJ7sGF85-15" value="" style="shape=image;html=1;verticalLabelPosition=bottom;labelBackgroundColor=#ffffff;verticalAlign=top;imageAspect=0;image=img/clipart/Gear_128x128.png" vertex="1" parent="1">
          <mxGeometry x="440" y="748" width="30" height="27" as="geometry" />
        </mxCell>
        <mxCell id="MdM7hJQWONPKvJ7sGF85-28" value="" style="edgeStyle=entityRelationEdgeStyle;fontSize=12;html=1;endArrow=ERzeroToMany;endFill=1;" edge="1" parent="1">
          <mxGeometry width="100" height="100" relative="1" as="geometry">
            <mxPoint x="1700" y="1030" as="sourcePoint" />
            <mxPoint x="1800" y="930" as="targetPoint" />
          </mxGeometry>
        </mxCell>
        <mxCell id="MdM7hJQWONPKvJ7sGF85-29" value="" style="edgeStyle=entityRelationEdgeStyle;fontSize=12;html=1;endArrow=ERzeroToMany;endFill=1;" edge="1" parent="1">
          <mxGeometry width="100" height="100" relative="1" as="geometry">
            <mxPoint x="1580" y="1390" as="sourcePoint" />
            <mxPoint x="1680" y="1290" as="targetPoint" />
          </mxGeometry>
        </mxCell>
        <mxCell id="MdM7hJQWONPKvJ7sGF85-30" value="" style="shape=image;html=1;verticalLabelPosition=bottom;labelBackgroundColor=#ffffff;verticalAlign=top;imageAspect=0;image=img/clipart/Gear_128x128.png" vertex="1" parent="1">
          <mxGeometry x="260" y="421.78" width="30" height="27" as="geometry" />
        </mxCell>
      </root>
    </mxGraphModel>
  </diagram>
</mxfile>
